<?xml version="1.0" encoding="utf-8"?>
<!-- Generator: Adobe Illustrator 15.0.2, SVG Export Plug-In . SVG Version: 6.00 Build 0)  -->
<svg version="1.2" baseProfile="tiny" id="Layer_1" xmlns="http://www.w3.org/2000/svg" xmlns:xlink="http://www.w3.org/1999/xlink"
	 x="0px" y="0px" width="272.728px" height="201.298px" viewBox="0 0 272.728 201.298" xml:space="preserve">
<g id="g24" transform="matrix(0.951243,0,0,0.951243,45.889135,53.788789)">
	
		<path id="path26" vector-effect="none" inkscape:connector-curvature="0" fill="#FFFFFF" stroke="#010101" stroke-width="3.364" stroke-linecap="square" stroke-miterlimit="2" d="
		M-11.663-20.23h45v37.5h-45V-20.23"/>
</g>
<g id="g32" transform="matrix(0.951243,0,0,0.951243,80.133835,53.788789)">
	
		<path id="path34" vector-effect="none" inkscape:connector-curvature="0" fill="#FFFFFF" stroke="#010101" stroke-width="3.364" stroke-linecap="square" stroke-miterlimit="2" d="
		M-2.663-20.23h45v37.5h-45V-20.23"/>
</g>
<g id="g40" transform="matrix(0.951243,0,0,0.951243,114.37863,53.788789)">
	
		<path id="path42" vector-effect="none" inkscape:connector-curvature="0" fill="#FFFFFF" stroke="#010101" stroke-width="3.364" stroke-linecap="square" stroke-miterlimit="2" d="
		M6.337-20.23h45v37.5h-45V-20.23"/>
</g>
<g id="g48" transform="matrix(0.951243,0,0,0.951243,148.62323,53.788789)">
	
		<path id="path50" vector-effect="none" inkscape:connector-curvature="0" fill="#FFFFFF" stroke="#010101" stroke-width="3.364" stroke-linecap="square" stroke-miterlimit="2" d="
		M15.338-20.23h45v37.5h-45V-20.23"/>
</g>
<g id="g56" transform="matrix(0.951243,0,0,0.951243,182.86823,53.788789)">
	
		<path id="path58" vector-effect="none" inkscape:connector-curvature="0" fill="#FFFFFF" stroke="#010101" stroke-width="3.364" stroke-linecap="square" stroke-miterlimit="2" d="
		M24.337-20.23h45v37.5h-45V-20.23"/>
</g>
<g id="g104" transform="matrix(0.951243,0,0,0.951243,45.889135,82.325784)">
	
		<path id="path106" vector-effect="none" inkscape:connector-curvature="0" fill="#FFFFFF" stroke="#010101" stroke-width="3.364" stroke-linecap="square" stroke-miterlimit="2" d="
		M-11.663-12.73h45v37.5h-45V-12.73"/>
</g>
<g id="g112" transform="matrix(0.951243,0,0,0.951243,80.133835,82.325784)">
	
		<path id="path114" vector-effect="none" inkscape:connector-curvature="0" fill="#FFFFFF" stroke="#010101" stroke-width="3.364" stroke-linecap="square" stroke-miterlimit="2" d="
		M-2.663-12.73h45v37.5h-45V-12.73"/>
</g>
<g id="g120" transform="matrix(0.951243,0,0,0.951243,114.37863,82.325784)">
	
		<path id="path122" vector-effect="none" inkscape:connector-curvature="0" fill="#FFFFFF" stroke="#010101" stroke-width="3.364" stroke-linecap="square" stroke-miterlimit="2" d="
		M6.337-12.73h45v37.5h-45V-12.73"/>
</g>
<g id="g128" transform="matrix(0.951243,0,0,0.951243,148.62323,82.325784)">
	
		<path id="path130" vector-effect="none" inkscape:connector-curvature="0" fill="#FFFFFF" stroke="#010101" stroke-width="3.364" stroke-linecap="square" stroke-miterlimit="2" d="
		M15.338-12.73h45v37.5h-45V-12.73"/>
</g>
<g id="g136" transform="matrix(0.951243,0,0,0.951243,182.86823,82.325784)">
	
		<path id="path138" vector-effect="none" inkscape:connector-curvature="0" fill="#FFFFFF" stroke="#010101" stroke-width="3.364" stroke-linecap="square" stroke-miterlimit="2" d="
		M24.337-12.73h45v37.5h-45V-12.73"/>
</g>
<g id="g184" transform="matrix(0.951243,0,0,0.951243,45.889135,110.86278)">
	
		<path id="path186" vector-effect="none" inkscape:connector-curvature="0" fill="#FFFFFF" stroke="#010101" stroke-width="3.364" stroke-linecap="square" stroke-miterlimit="2" d="
		M-11.663-5.23h45v37.499h-45V-5.23"/>
</g>
<g id="g192" transform="matrix(0.951243,0,0,0.951243,80.133835,110.86278)">
	
		<path id="path194" vector-effect="none" inkscape:connector-curvature="0" fill="#FFFFFF" stroke="#010101" stroke-width="3.364" stroke-linecap="square" stroke-miterlimit="2" d="
		M-2.663-5.23h45v37.499h-45V-5.23"/>
</g>
<g id="g200" transform="matrix(0.951243,0,0,0.951243,114.37863,110.86278)">
	
		<path id="path202" vector-effect="none" inkscape:connector-curvature="0" fill="#FFFFFF" stroke="#010101" stroke-width="3.364" stroke-linecap="square" stroke-miterlimit="2" d="
		M6.337-5.23h45v37.499h-45V-5.23"/>
</g>
<g id="g208" transform="matrix(0.951243,0,0,0.951243,148.62323,110.86278)">
	
		<path id="path210" vector-effect="none" inkscape:connector-curvature="0" fill="#FFFFFF" stroke="#010101" stroke-width="3.364" stroke-linecap="square" stroke-miterlimit="2" d="
		M15.338-5.23h45v37.499h-45V-5.23"/>
</g>
<g id="g216" transform="matrix(0.951243,0,0,0.951243,182.86823,110.86278)">
	
		<path id="path218" vector-effect="none" inkscape:connector-curvature="0" fill="#FFFFFF" stroke="#010101" stroke-width="3.364" stroke-linecap="square" stroke-miterlimit="2" d="
		M24.337-5.23h45v37.499h-45V-5.23"/>
</g>
<g id="g264" transform="matrix(0.951243,0,0,0.951243,45.889135,139.39979)">
	
		<path id="path266" vector-effect="none" inkscape:connector-curvature="0" fill="#FFFFFF" stroke="#010101" stroke-width="3.364" stroke-linecap="square" stroke-miterlimit="2" d="
		M-11.663,2.269h45v37.5h-45V2.269"/>
</g>
<g id="g272" transform="matrix(0.951243,0,0,0.951243,80.133835,139.39979)">
	
		<path id="path274" vector-effect="none" inkscape:connector-curvature="0" fill="#FFFFFF" stroke="#010101" stroke-width="3.364" stroke-linecap="square" stroke-miterlimit="2" d="
		M-2.663,2.269h45v37.5h-45V2.269"/>
</g>
<g id="g280" transform="matrix(0.951243,0,0,0.951243,114.37863,139.39979)">
	
		<path id="path282" vector-effect="none" inkscape:connector-curvature="0" fill="#FFFFFF" stroke="#010101" stroke-width="3.364" stroke-linecap="square" stroke-miterlimit="2" d="
		M6.337,2.269h45v37.5h-45V2.269"/>
</g>
<g id="g288" transform="matrix(0.951243,0,0,0.951243,148.62323,139.39979)">
	
		<path id="path290" vector-effect="none" inkscape:connector-curvature="0" fill="#FFFFFF" stroke="#010101" stroke-width="3.364" stroke-linecap="square" stroke-miterlimit="2" d="
		M15.338,2.269h45v37.5h-45V2.269"/>
</g>
<g id="g296" transform="matrix(0.951243,0,0,0.951243,182.86823,139.39979)">
	
		<path id="path298" vector-effect="none" inkscape:connector-curvature="0" fill="#FFFFFF" stroke="#010101" stroke-width="3.364" stroke-linecap="square" stroke-miterlimit="2" d="
		M24.337,2.269h45v37.5h-45V2.269"/>
</g>
<line fill="none" stroke="#F15822" stroke-width="10" stroke-linecap="square" stroke-miterlimit="2" x1="120.407" y1="193.715" x2="120.407" y2="70.217"/>
<line fill="none" stroke="#F15822" stroke-width="10" stroke-linecap="square" stroke-miterlimit="2" x1="120.407" y1="70.217" x2="262.338" y2="70.216"/>
</svg>
