<?xml version="1.0" encoding="UTF-8" standalone="no"?>
<!-- Created with Inkscape (http://www.inkscape.org/) -->
<svg
   xmlns:svg="http://www.w3.org/2000/svg"
   xmlns="http://www.w3.org/2000/svg"
   version="1.0"
   width="180"
   height="90"
   id="svg2">
  <defs
     id="defs4" />
  <g
     id="layer1">
    <path
       d="M 95.711954,0.85403778 L 180.31223,90.757614"
       id="path2387"
       style="fill:none;fill-rule:evenodd;stroke:#000000;stroke-width:1px;stroke-linecap:butt;stroke-linejoin:miter;stroke-opacity:1" />
    <path
       d="M 137.63328,45.30075 L 179.80715,1.1065759"
       id="path2389"
       style="fill:none;fill-rule:evenodd;stroke:#000000;stroke-width:1px;stroke-linecap:butt;stroke-linejoin:miter;stroke-opacity:1" />
    <path
       d="M 0.25253814,0.60149964 C 1.0101525,1.6116522 88.13581,90.252538 88.13581,90.252538"
       id="path2391"
       style="fill:none;fill-rule:evenodd;stroke:#000000;stroke-width:1px;stroke-linecap:butt;stroke-linejoin:miter;stroke-opacity:1" />
    <path
       d="M 0.25253814,89.747462 L 45.709403,47.321055"
       id="path2393"
       style="fill:none;fill-rule:evenodd;stroke:#000000;stroke-width:1px;stroke-linecap:butt;stroke-linejoin:miter;stroke-opacity:1" />
    <path
       d="M 0,0.85403778 L 0,90 L 1.0101525,89.494924"
       id="path2395"
       style="fill:none;fill-rule:evenodd;stroke:#000000;stroke-width:1px;stroke-linecap:butt;stroke-linejoin:miter;stroke-opacity:1" />
    <path
       d="M 0.53149308,45.175537 L 0.53149308,1.8301188 L 7.1737815,8.5897237 C 24.783531,26.510492 44.767568,47.019518 44.767869,47.171424 C 44.768154,47.315076 2.1771023,87.174708 0.95515611,88.174355 C 0.55893135,88.498513 0.53149308,85.713876 0.53149308,45.17554 L 0.53149308,45.175537 z"
       id="path2397"
       style="fill:#000000;stroke:none;stroke-width:1px;stroke-linecap:butt;stroke-linejoin:miter;stroke-opacity:1" />
    <path
       d="M 180.05969,0.34896151 L 180.56477,90"
       id="path2399"
       style="fill:none;fill-rule:evenodd;stroke:#000000;stroke-width:1px;stroke-linecap:butt;stroke-linejoin:miter;stroke-opacity:1" />
    <path
       d="M 159.12544,67.331938 C 147.80542,55.298551 138.55575,45.397513 138.57062,45.329639 C 138.65185,44.958928 179.22892,2.6585575 179.36509,2.8026381 C 179.53222,2.9794956 179.96587,89.21908 179.7996,89.213776 C 179.74884,89.21216 170.44546,79.365337 159.12544,67.331943 L 159.12544,67.331938 z"
       id="path2401"
       style="fill:#000000" />
  </g>
</svg>
